<mxfile host="app.diagrams.net" modified="2022-03-31T11:17:46.832Z" agent="5.0 (Windows NT 10.0; Win64; x64) AppleWebKit/537.36 (KHTML, like Gecko) Chrome/99.0.4844.74 Safari/537.36 Edg/99.0.1150.55" etag="v8oBC__TvT56hC69-M5D" version="17.3.0" type="github">
  <diagram id="C5RBs43oDa-KdzZeNtuy" name="Page-1">
    <mxGraphModel dx="1422" dy="794" grid="1" gridSize="10" guides="1" tooltips="1" connect="1" arrows="1" fold="1" page="1" pageScale="1" pageWidth="827" pageHeight="1169" math="0" shadow="0">
      <root>
        <mxCell id="WIyWlLk6GJQsqaUBKTNV-0" />
        <mxCell id="WIyWlLk6GJQsqaUBKTNV-1" parent="WIyWlLk6GJQsqaUBKTNV-0" />
        <mxCell id="WIyWlLk6GJQsqaUBKTNV-2" value="" style="rounded=0;html=1;jettySize=auto;orthogonalLoop=1;fontSize=11;endArrow=block;endFill=0;endSize=8;strokeWidth=1;shadow=0;labelBackgroundColor=none;edgeStyle=orthogonalEdgeStyle;entryX=0.5;entryY=0;entryDx=0;entryDy=0;" parent="WIyWlLk6GJQsqaUBKTNV-1" source="WIyWlLk6GJQsqaUBKTNV-3" target="SW-Cs08znNOIHkKlpmst-0" edge="1">
          <mxGeometry relative="1" as="geometry">
            <mxPoint x="259" y="180" as="targetPoint" />
            <Array as="points">
              <mxPoint x="259" y="100" />
              <mxPoint x="259" y="180" />
              <mxPoint x="249" y="180" />
            </Array>
          </mxGeometry>
        </mxCell>
        <mxCell id="SW-Cs08znNOIHkKlpmst-6" style="edgeStyle=orthogonalEdgeStyle;rounded=0;orthogonalLoop=1;jettySize=auto;html=1;exitX=1;exitY=0.5;exitDx=0;exitDy=0;entryX=0.5;entryY=0;entryDx=0;entryDy=0;" edge="1" parent="WIyWlLk6GJQsqaUBKTNV-1" source="WIyWlLk6GJQsqaUBKTNV-3" target="SW-Cs08znNOIHkKlpmst-1">
          <mxGeometry relative="1" as="geometry">
            <mxPoint x="529" y="190" as="targetPoint" />
          </mxGeometry>
        </mxCell>
        <mxCell id="WIyWlLk6GJQsqaUBKTNV-3" value="Browser" style="rounded=1;whiteSpace=wrap;html=1;fontSize=12;glass=0;strokeWidth=1;shadow=0;" parent="WIyWlLk6GJQsqaUBKTNV-1" vertex="1">
          <mxGeometry x="379" y="80" width="110" height="40" as="geometry" />
        </mxCell>
        <mxCell id="SW-Cs08znNOIHkKlpmst-9" style="edgeStyle=orthogonalEdgeStyle;rounded=0;orthogonalLoop=1;jettySize=auto;html=1;" edge="1" parent="WIyWlLk6GJQsqaUBKTNV-1" source="SW-Cs08znNOIHkKlpmst-0" target="SW-Cs08znNOIHkKlpmst-32">
          <mxGeometry relative="1" as="geometry">
            <mxPoint x="379" y="220" as="targetPoint" />
          </mxGeometry>
        </mxCell>
        <mxCell id="SW-Cs08znNOIHkKlpmst-0" value="EndereÃ§o" style="rounded=0;whiteSpace=wrap;html=1;" vertex="1" parent="WIyWlLk6GJQsqaUBKTNV-1">
          <mxGeometry x="189" y="190" width="120" height="60" as="geometry" />
        </mxCell>
        <mxCell id="SW-Cs08znNOIHkKlpmst-12" style="edgeStyle=orthogonalEdgeStyle;rounded=0;orthogonalLoop=1;jettySize=auto;html=1;" edge="1" parent="WIyWlLk6GJQsqaUBKTNV-1" source="SW-Cs08znNOIHkKlpmst-1" target="SW-Cs08znNOIHkKlpmst-13">
          <mxGeometry relative="1" as="geometry">
            <mxPoint x="599" y="320" as="targetPoint" />
          </mxGeometry>
        </mxCell>
        <mxCell id="SW-Cs08znNOIHkKlpmst-1" value="DNS" style="rounded=0;whiteSpace=wrap;html=1;" vertex="1" parent="WIyWlLk6GJQsqaUBKTNV-1">
          <mxGeometry x="539" y="190" width="120" height="60" as="geometry" />
        </mxCell>
        <mxCell id="SW-Cs08znNOIHkKlpmst-21" style="edgeStyle=orthogonalEdgeStyle;rounded=0;orthogonalLoop=1;jettySize=auto;html=1;" edge="1" parent="WIyWlLk6GJQsqaUBKTNV-1" source="SW-Cs08znNOIHkKlpmst-13" target="SW-Cs08znNOIHkKlpmst-22">
          <mxGeometry relative="1" as="geometry">
            <mxPoint x="599" y="430" as="targetPoint" />
          </mxGeometry>
        </mxCell>
        <mxCell id="SW-Cs08znNOIHkKlpmst-13" value="Encontrar link" style="rounded=0;whiteSpace=wrap;html=1;" vertex="1" parent="WIyWlLk6GJQsqaUBKTNV-1">
          <mxGeometry x="539" y="300" width="120" height="60" as="geometry" />
        </mxCell>
        <mxCell id="SW-Cs08znNOIHkKlpmst-22" value="Verificar se o link existe" style="shape=hexagon;perimeter=hexagonPerimeter2;whiteSpace=wrap;html=1;fixedSize=1;" vertex="1" parent="WIyWlLk6GJQsqaUBKTNV-1">
          <mxGeometry x="539" y="390" width="120" height="80" as="geometry" />
        </mxCell>
        <mxCell id="SW-Cs08znNOIHkKlpmst-27" value="home" style="rhombus;whiteSpace=wrap;html=1;" vertex="1" parent="WIyWlLk6GJQsqaUBKTNV-1">
          <mxGeometry x="369" y="300" width="80" height="80" as="geometry" />
        </mxCell>
        <mxCell id="SW-Cs08znNOIHkKlpmst-28" value="" style="endArrow=classic;html=1;rounded=0;exitX=0;exitY=0.375;exitDx=0;exitDy=0;exitPerimeter=0;" edge="1" parent="WIyWlLk6GJQsqaUBKTNV-1" source="SW-Cs08znNOIHkKlpmst-22" target="SW-Cs08znNOIHkKlpmst-27">
          <mxGeometry width="50" height="50" relative="1" as="geometry">
            <mxPoint x="439" y="410" as="sourcePoint" />
            <mxPoint x="489" y="360" as="targetPoint" />
          </mxGeometry>
        </mxCell>
        <mxCell id="SW-Cs08znNOIHkKlpmst-39" style="edgeStyle=orthogonalEdgeStyle;rounded=0;orthogonalLoop=1;jettySize=auto;html=1;" edge="1" parent="WIyWlLk6GJQsqaUBKTNV-1" source="SW-Cs08znNOIHkKlpmst-30" target="SW-Cs08znNOIHkKlpmst-40">
          <mxGeometry relative="1" as="geometry">
            <mxPoint x="199" y="460" as="targetPoint" />
          </mxGeometry>
        </mxCell>
        <mxCell id="SW-Cs08znNOIHkKlpmst-30" value="Usuario" style="shape=process;whiteSpace=wrap;html=1;backgroundOutline=1;" vertex="1" parent="WIyWlLk6GJQsqaUBKTNV-1">
          <mxGeometry x="169" y="310" width="120" height="60" as="geometry" />
        </mxCell>
        <mxCell id="SW-Cs08znNOIHkKlpmst-31" value="" style="endArrow=classic;html=1;rounded=0;exitX=0;exitY=0.5;exitDx=0;exitDy=0;entryX=1;entryY=0.5;entryDx=0;entryDy=0;" edge="1" parent="WIyWlLk6GJQsqaUBKTNV-1" source="SW-Cs08znNOIHkKlpmst-27" target="SW-Cs08znNOIHkKlpmst-30">
          <mxGeometry width="50" height="50" relative="1" as="geometry">
            <mxPoint x="439" y="410" as="sourcePoint" />
            <mxPoint x="489" y="360" as="targetPoint" />
          </mxGeometry>
        </mxCell>
        <mxCell id="SW-Cs08znNOIHkKlpmst-33" style="edgeStyle=orthogonalEdgeStyle;rounded=0;orthogonalLoop=1;jettySize=auto;html=1;entryX=0;entryY=0.5;entryDx=0;entryDy=0;" edge="1" parent="WIyWlLk6GJQsqaUBKTNV-1" source="SW-Cs08znNOIHkKlpmst-32" target="SW-Cs08znNOIHkKlpmst-1">
          <mxGeometry relative="1" as="geometry">
            <mxPoint x="529" y="220" as="targetPoint" />
          </mxGeometry>
        </mxCell>
        <mxCell id="SW-Cs08znNOIHkKlpmst-32" value="URL" style="shape=tape;whiteSpace=wrap;html=1;" vertex="1" parent="WIyWlLk6GJQsqaUBKTNV-1">
          <mxGeometry x="363" y="170" width="120" height="100" as="geometry" />
        </mxCell>
        <mxCell id="SW-Cs08znNOIHkKlpmst-45" style="edgeStyle=orthogonalEdgeStyle;rounded=0;orthogonalLoop=1;jettySize=auto;html=1;entryX=0.5;entryY=0;entryDx=0;entryDy=0;" edge="1" parent="WIyWlLk6GJQsqaUBKTNV-1" source="SW-Cs08znNOIHkKlpmst-40" target="SW-Cs08znNOIHkKlpmst-44">
          <mxGeometry relative="1" as="geometry" />
        </mxCell>
        <mxCell id="SW-Cs08znNOIHkKlpmst-48" style="edgeStyle=orthogonalEdgeStyle;rounded=0;orthogonalLoop=1;jettySize=auto;html=1;exitX=1;exitY=0.5;exitDx=0;exitDy=0;" edge="1" parent="WIyWlLk6GJQsqaUBKTNV-1" source="SW-Cs08znNOIHkKlpmst-40">
          <mxGeometry relative="1" as="geometry">
            <mxPoint x="279" y="490" as="targetPoint" />
          </mxGeometry>
        </mxCell>
        <mxCell id="SW-Cs08znNOIHkKlpmst-55" style="edgeStyle=orthogonalEdgeStyle;rounded=0;orthogonalLoop=1;jettySize=auto;html=1;entryX=0.5;entryY=0;entryDx=0;entryDy=0;" edge="1" parent="WIyWlLk6GJQsqaUBKTNV-1" source="SW-Cs08znNOIHkKlpmst-40" target="SW-Cs08znNOIHkKlpmst-51">
          <mxGeometry relative="1" as="geometry" />
        </mxCell>
        <mxCell id="SW-Cs08znNOIHkKlpmst-57" style="edgeStyle=orthogonalEdgeStyle;rounded=0;orthogonalLoop=1;jettySize=auto;html=1;exitX=0;exitY=0.5;exitDx=0;exitDy=0;entryX=1;entryY=0.5;entryDx=0;entryDy=0;" edge="1" parent="WIyWlLk6GJQsqaUBKTNV-1" source="SW-Cs08znNOIHkKlpmst-40" target="SW-Cs08znNOIHkKlpmst-56">
          <mxGeometry relative="1" as="geometry" />
        </mxCell>
        <mxCell id="SW-Cs08znNOIHkKlpmst-40" value="Acesso&lt;br&gt;" style="rounded=0;whiteSpace=wrap;html=1;" vertex="1" parent="WIyWlLk6GJQsqaUBKTNV-1">
          <mxGeometry x="169" y="440" width="120" height="60" as="geometry" />
        </mxCell>
        <mxCell id="SW-Cs08znNOIHkKlpmst-46" style="edgeStyle=orthogonalEdgeStyle;rounded=0;orthogonalLoop=1;jettySize=auto;html=1;" edge="1" parent="WIyWlLk6GJQsqaUBKTNV-1" source="SW-Cs08znNOIHkKlpmst-44" target="SW-Cs08znNOIHkKlpmst-47">
          <mxGeometry relative="1" as="geometry">
            <mxPoint x="459" y="585" as="targetPoint" />
          </mxGeometry>
        </mxCell>
        <mxCell id="SW-Cs08znNOIHkKlpmst-44" value="#back" style="ellipse;whiteSpace=wrap;html=1;aspect=fixed;" vertex="1" parent="WIyWlLk6GJQsqaUBKTNV-1">
          <mxGeometry x="299" y="545" width="80" height="80" as="geometry" />
        </mxCell>
        <mxCell id="SW-Cs08znNOIHkKlpmst-47" value="Volta a URL&amp;nbsp;" style="rounded=0;whiteSpace=wrap;html=1;" vertex="1" parent="WIyWlLk6GJQsqaUBKTNV-1">
          <mxGeometry x="489" y="555" width="120" height="60" as="geometry" />
        </mxCell>
        <mxCell id="SW-Cs08znNOIHkKlpmst-52" style="edgeStyle=orthogonalEdgeStyle;rounded=0;orthogonalLoop=1;jettySize=auto;html=1;" edge="1" parent="WIyWlLk6GJQsqaUBKTNV-1" source="SW-Cs08znNOIHkKlpmst-51" target="SW-Cs08znNOIHkKlpmst-53">
          <mxGeometry relative="1" as="geometry">
            <mxPoint x="219" y="700" as="targetPoint" />
          </mxGeometry>
        </mxCell>
        <mxCell id="SW-Cs08znNOIHkKlpmst-51" value="#sair" style="ellipse;whiteSpace=wrap;html=1;aspect=fixed;" vertex="1" parent="WIyWlLk6GJQsqaUBKTNV-1">
          <mxGeometry x="189" y="570" width="80" height="80" as="geometry" />
        </mxCell>
        <mxCell id="SW-Cs08znNOIHkKlpmst-53" value="Sai do programa" style="rounded=0;whiteSpace=wrap;html=1;" vertex="1" parent="WIyWlLk6GJQsqaUBKTNV-1">
          <mxGeometry x="169" y="690" width="120" height="60" as="geometry" />
        </mxCell>
        <mxCell id="SW-Cs08znNOIHkKlpmst-58" style="edgeStyle=orthogonalEdgeStyle;rounded=0;orthogonalLoop=1;jettySize=auto;html=1;" edge="1" parent="WIyWlLk6GJQsqaUBKTNV-1" source="SW-Cs08znNOIHkKlpmst-56">
          <mxGeometry relative="1" as="geometry">
            <mxPoint x="70" y="590" as="targetPoint" />
          </mxGeometry>
        </mxCell>
        <mxCell id="SW-Cs08znNOIHkKlpmst-56" value="#showhist" style="ellipse;whiteSpace=wrap;html=1;aspect=fixed;" vertex="1" parent="WIyWlLk6GJQsqaUBKTNV-1">
          <mxGeometry x="30" y="430" width="80" height="80" as="geometry" />
        </mxCell>
        <mxCell id="SW-Cs08znNOIHkKlpmst-59" value="Mostra O historico" style="rounded=0;whiteSpace=wrap;html=1;" vertex="1" parent="WIyWlLk6GJQsqaUBKTNV-1">
          <mxGeometry x="10" y="590" width="120" height="60" as="geometry" />
        </mxCell>
      </root>
    </mxGraphModel>
  </diagram>
</mxfile>
